<?xml version="1.0" encoding="UTF-8"?>
<svg viewBox="0 0 640 480" xmlns="http://www.w3.org/2000/svg">
 <path d="m227.39 0h-209.39c-9.941 0-18 8.059-18 18v418.79c0 9.94 8.059 18 18 18h418.79c9.941 0 18-8.06 18-18v-418.79c0-9.941-8.059-18-18-18h-209.39z" fill="#23234b" fill-rule="evenodd"/>
 <path d="m168.66 385.64v-145.94c-8.531 9.72-16.308 17.712-23.867 24.407-7.597 6.624-13.248 12.061-21.133 15.192-8.064 3.132-19.296 6.12-26.064 3.276-6.768-3.097-11.088-8.856-14.075-21.168-2.952-12.528-3.528-37.009-3.816-52.632-0.468-15.732-3.491-32.4 1.62-40.141 5.148-7.704 23.112-9.144 28.764-5.436 5.508 3.744 3.24 16.02 4.32 27.684 1.008 11.7 1.512 25.344 1.656 41.76 5.939-6.12 12.132-12.132 18.972-18.432 6.841-6.336 12.78-15.156 21.708-18.973 8.82-3.815 19.908-5.04 30.924-3.815 10.98 1.224 22.824 10.62 34.164 10.836 11.232-0.03601 22.608-7.164 32.58-10.296 9.72-3.096 15.66 4.104 26.028-8.136 10.404-12.456 25.848-47.664 35.784-65.628 9.72-18.108 14.58-35.28 22.788-41.796 8.172-6.372 22.5-2.736 26.063 3.276 3.348 5.832 4.356 10.944-5.436 32.004-9.973 21.204-39.78 72.756-53.172 93.853-13.429 20.808-22.104 31.067-26.568 30.924v149.18l-111.24 9.8e-4z" fill="#fff" fill-rule="evenodd"/>
 <path d="m228.4 92.633c23.945 0 43.38 19.435 43.38 43.38s-19.435 43.38-43.38 43.38c-23.945 0-43.381-19.435-43.381-43.38 0.00101-23.946 19.436-43.38 43.381-43.38" fill="#fff" fill-rule="evenodd"/>
 <path d="m56.381 174.61v7.596h71.063v-7.596h-71.063z" fill="#fff" fill-rule="evenodd"/>
 <path d="m130.36 152.9c-4.896 0-8.892 3.96-8.892 8.856v32.184c0 4.896 3.996 8.856 8.892 8.856h3.924c4.933 0 8.892-3.96 8.892-8.856v-32.184c0-4.896-3.959-8.856-8.892-8.856h-3.924z" fill="#fff" fill-rule="evenodd"/>
 <path d="m59.297 152.9c-4.896 0-8.893 3.96-8.893 8.856v32.184c0 4.896 3.996 8.856 8.893 8.856h3.959c4.896 0 8.856-3.96 8.856-8.856v-32.184c0-4.896-3.96-8.856-8.856-8.856h-3.959z" fill="#fff" fill-rule="evenodd"/>
 <path d="m313.24 73.701-3.024 6.984 65.269 28.116 3.023-6.984-65.268-28.116z" fill="#fff" fill-rule="evenodd"/>
 <path d="m389.74 83.025c-4.5-1.944-9.72 0.144-11.664 4.644-4.212 9.864-8.46 19.692-12.708 29.556-1.944 4.5 0.14398 9.72 4.644 11.664 1.188 0.504 2.412 1.044 3.637 1.548 4.5 1.944 9.72-0.144 11.628-4.644 4.248-9.828 8.496-19.692 12.744-29.52 1.943-4.5-0.14499-9.72-4.645-11.664-1.188-0.54-2.412-1.044-3.636-1.584z" fill="#fff" fill-rule="evenodd"/>
 <path d="m324.47 54.909c-4.5-1.908-9.721 0.144-11.664 4.644-4.212 9.864-8.46 19.692-12.708 29.556-1.944 4.5 0.14398 9.72 4.644 11.664 1.188 0.504 2.412 1.044 3.636 1.548 4.5 1.944 9.721-0.144 11.628-4.644 4.248-9.828 8.496-19.692 12.744-29.52 1.944-4.5-0.14398-9.72-4.644-11.664-1.189-0.504-2.413-1.044-3.636-1.584z" fill="#fff" fill-rule="evenodd"/>
 <path d="m167.3 381.43v-145.94c-8.461 9.684-16.381 17.783-23.904 24.443-7.561 6.552-13.356 12.024-21.133 15.156-8.063 3.132-19.295 6.12-26.063 3.276-6.769-3.097-11.088-8.856-14.076-21.168-2.952-12.528-3.528-37.009-3.815-52.633-0.469-15.731-3.492-32.399 1.619-40.14 5.148-7.704 23.112-9.144 28.764-5.436 5.473 3.744 3.313 16.02 4.357 27.684 0.936 11.7 1.475 25.344 1.619 41.76 5.939-6.12 12.133-12.132 18.973-18.432 6.84-6.336 12.779-15.156 21.707-18.972 8.82-3.816 19.908-5.04 30.924-3.816 10.98 1.224 22.824 10.62 34.164 10.836 11.232-0.03599 22.608-7.164 32.58-10.296 9.721-3.096 15.66 4.104 26.028-8.136 10.404-12.456 25.849-47.664 35.784-65.628 9.72-18.108 14.58-35.28 22.788-41.796 8.172-6.372 22.5-2.736 26.063 3.276 3.349 5.832 4.356 10.944-5.436 32.004-9.972 21.204-39.78 72.756-53.172 93.852-13.428 20.809-22.104 31.068-26.568 30.925v149.18l-111.2 9.8e-4z" fill="#fff" fill-rule="evenodd"/>
 <path d="m226.96 88.397c23.946 0 43.38 19.45 43.38 43.416s-19.434 43.416-43.38 43.416-43.38-19.451-43.38-43.416c0-23.966 19.435-43.416 43.38-43.416" fill="#fff" fill-rule="evenodd"/>
 <path d="m54.977 170.4v7.596h71.063v-7.596h-71.063z" fill="#fff" fill-rule="evenodd"/>
 <path d="m128.96 148.69c-4.896 0-8.892 3.96-8.892 8.856v32.184c0 4.896 3.996 8.892 8.892 8.892h3.96c4.896 0 8.856-3.996 8.856-8.892v-32.184c0-4.896-3.96-8.856-8.856-8.856h-3.96z" fill="#fff" fill-rule="evenodd"/>
 <path d="m57.893 148.69c-4.896 0-8.893 3.96-8.893 8.856v32.184c0 4.896 3.996 8.892 8.893 8.892h3.959c4.896 0 8.856-3.996 8.856-8.892v-32.184c0-4.896-3.96-8.856-8.856-8.856h-3.959z" fill="#fff" fill-rule="evenodd"/>
 <path d="m311.84 69.489-3.023 6.984 65.268 28.116 3.024-6.984-65.269-28.116z" fill="#fff" fill-rule="evenodd"/>
 <path d="m388.34 78.813c-4.5-1.908-9.72 0.144-11.664 4.644-4.212 9.864-8.46 19.692-12.708 29.556-1.943 4.5 0.14502 9.72 4.645 11.664 1.188 0.504 2.412 1.044 3.636 1.548 4.5 1.944 9.72-0.144 11.628-4.644 4.248-9.828 8.496-19.692 12.744-29.52 1.944-4.5-0.14401-9.72-4.644-11.664-1.189-0.54-2.412-1.044-3.637-1.584z" fill="#fff" fill-rule="evenodd"/>
 <path d="m323.07 50.733c-4.5-1.944-9.72 0.108-11.664 4.608-4.212 9.864-8.46 19.692-12.708 29.556-1.944 4.5 0.14398 9.72 4.644 11.664 1.188 0.50401 2.412 1.044 3.637 1.548 4.5 1.944 9.72-0.144 11.628-4.608 4.248-9.864 8.496-19.728 12.744-29.556 1.943-4.5-0.14499-9.72-4.645-11.664-1.187-0.504-2.412-1.044-3.636-1.548z" fill="#fff" fill-rule="evenodd"/>
</svg>
